<svg width="24" height="24" viewBox="0 0 24 24" fill="none" xmlns="http://www.w3.org/2000/svg">
<path fill-rule="evenodd" clip-rule="evenodd" d="M9.04274 18.4188C9.36375 18.8683 9.25965 19.4928 8.81024 19.8138C8.36083 20.1348 7.73628 20.0307 7.41527 19.5813L2.41527 12.5813L2.0001 12.0001L2.41527 11.4188L7.41527 4.41884C7.73628 3.96943 8.36083 3.86534 8.81024 4.18634C9.25965 4.50735 9.36375 5.1319 9.04274 5.58132L5.17101 11.0017C5.1902 11.0006 5.20954 11.0001 5.229 11.0001L21.229 11.0001C21.7813 11.0001 22.229 11.4478 22.229 12.0001C22.229 12.5524 21.7813 13.0001 21.229 13.0001L5.229 13.0001C5.20954 13.0001 5.1902 12.9995 5.17101 12.9984L9.04274 18.4188Z" fill="#08305B"/>
</svg>
