<svg width="24" height="24" viewBox="0 0 24 24" fill="none" xmlns="http://www.w3.org/2000/svg">
<path fill-rule="evenodd" clip-rule="evenodd" d="M15.1863 18.4188C14.8653 18.8683 14.9693 19.4928 15.4188 19.8138C15.8682 20.1348 16.4927 20.0307 16.8137 19.5813L21.8137 12.5813L22.2289 12.0001L21.8137 11.4188L16.8137 4.41884C16.4927 3.96943 15.8682 3.86534 15.4188 4.18634C14.9693 4.50735 14.8653 5.1319 15.1863 5.58132L19.058 11.0017C19.0388 11.0006 19.0195 11.0001 19 11.0001L3 11.0001C2.44772 11.0001 2 11.4478 2 12.0001C2 12.5524 2.44772 13.0001 3 13.0001L19 13.0001C19.0195 13.0001 19.0388 12.9995 19.058 12.9984L15.1863 18.4188Z" fill="#08305B"/>
</svg>
