<svg width="24" height="24" viewBox="0 0 24 24" fill="none" xmlns="http://www.w3.org/2000/svg">
<path fill-rule="evenodd" clip-rule="evenodd" d="M5.58104 15.072C5.13162 14.751 4.50707 14.8551 4.18607 15.3045C3.86506 15.7539 3.96915 16.3785 4.41856 16.6995L11.4186 21.6995L11.9998 22.1146L12.581 21.6995L19.581 16.6995C20.0305 16.3785 20.1345 15.7539 19.8135 15.3045C19.4925 14.8551 18.868 14.751 18.4186 15.072L12.9981 18.9437C12.9992 18.9245 12.9998 18.9052 12.9998 18.8857L12.9998 2.88574C12.9998 2.33346 12.5521 1.88574 11.9998 1.88574C11.4475 1.88574 10.9998 2.33346 10.9998 2.88574L10.9998 18.8857C10.9998 18.9052 11.0004 18.9245 11.0015 18.9437L5.58104 15.072Z" fill="#08305B"/>
</svg>
