<svg width="24" height="24" viewBox="0 0 24 24" fill="none" xmlns="http://www.w3.org/2000/svg">
<path fill-rule="evenodd" clip-rule="evenodd" d="M5.58104 8.92848C5.13162 9.24949 4.50707 9.1454 4.18607 8.69598C3.86506 8.24657 3.96915 7.62202 4.41856 7.30101L11.4186 2.30101L11.9998 1.88584L12.581 2.30101L19.581 7.30101C20.0305 7.62202 20.1345 8.24657 19.8135 8.69598C19.4925 9.1454 18.868 9.24949 18.4186 8.92848L12.9981 5.05675C12.9992 5.07594 12.9998 5.09528 12.9998 5.11475L12.9998 21.1147C12.9998 21.667 12.5521 22.1147 11.9998 22.1147C11.4475 22.1147 10.9998 21.667 10.9998 21.1147L10.9998 5.11475C10.9998 5.09528 11.0004 5.07595 11.0015 5.05676L5.58104 8.92848Z" fill="#08305B"/>
</svg>
