<svg width="24" height="24" viewBox="0 0 24 24" fill="none" xmlns="http://www.w3.org/2000/svg">
<g clip-path="url(#clip0_673_2471)">
<path fill-rule="evenodd" clip-rule="evenodd" d="M16.2634 13.435L14.8492 12.0208L16.2634 10.6066L16.9705 11.3137L21.9202 6.36396L17.6776 2.12132L12.7278 7.07107L13.4349 7.77817L12.0207 9.19239L10.6065 7.77817V6.36396L16.9705 0H18.3847L24.0415 5.65686V7.07107L17.6776 13.435H16.2634ZM6.36396 10.6068H7.77817L9.19239 12.021L7.77817 13.4352L7.07107 12.7281L2.12132 17.6778L6.36396 21.9205L11.3137 16.9707L10.6066 16.2636L12.0208 14.8494L13.435 16.2636V17.6778L7.07107 24.0418H5.65685L0 18.3849V16.9707L6.36396 10.6068ZM7.7781 17.6776L17.6776 7.77814L16.2634 6.36392L6.36389 16.2634L7.7781 17.6776Z" fill="#08305B"/>
</g>
<defs>
<clipPath id="clip0_673_2471">
<rect width="24" height="24" fill="white"/>
</clipPath>
</defs>
</svg>
