<svg width="24" height="24" viewBox="0 0 24 24" fill="none" xmlns="http://www.w3.org/2000/svg">
<path d="M12 3C12.1671 3.00009 12.3309 3.04669 12.473 3.13459C12.6151 3.22249 12.7299 3.34822 12.8046 3.49769L15.1265 8.13975L20.2294 8.88133C20.3956 8.90547 20.5517 8.97564 20.6802 9.08392C20.8086 9.19219 20.9041 9.33424 20.956 9.494C21.0079 9.65375 21.014 9.82484 20.9737 9.9879C20.9334 10.151 20.8483 10.2995 20.7279 10.4167L17.0138 14.0382L17.8489 19.1446C17.8758 19.3099 17.8559 19.4795 17.7917 19.6341C17.7274 19.7888 17.6213 19.9224 17.4853 20.0201C17.3492 20.1177 17.1886 20.1754 17.0215 20.1867C16.8544 20.1981 16.6875 20.1626 16.5395 20.0842L12 17.6759L7.46053 20.0842C7.31253 20.1626 7.14559 20.1981 6.97851 20.1867C6.81142 20.1754 6.65082 20.1177 6.51475 20.0201C6.37868 19.9224 6.27256 19.7888 6.20831 19.6341C6.14406 19.4795 6.12424 19.3099 6.15107 19.1446L6.98625 14.0382L3.27205 10.4167C3.15172 10.2995 3.06659 10.151 3.02629 9.9879C2.98599 9.82484 2.99212 9.65375 3.044 9.494C3.09588 9.33424 3.19143 9.19219 3.31985 9.08392C3.44826 8.97564 3.60441 8.90547 3.77064 8.88133L8.87349 8.13975L11.1954 3.49769C11.2701 3.34822 11.3849 3.22249 11.527 3.13459C11.6691 3.04669 11.8329 3.00009 12 3ZM12 5.91232L10.2738 9.36462C10.2091 9.49445 10.1139 9.6067 9.99633 9.69179C9.8788 9.77688 9.74244 9.83229 9.59887 9.8533L5.83338 10.4005L8.5783 13.0761C8.68203 13.1772 8.75984 13.3018 8.80512 13.4393C8.8504 13.5769 8.86182 13.7234 8.83839 13.8663L8.22011 17.6435L11.5779 15.8615C11.7079 15.7925 11.8528 15.7564 12 15.7564C12.1472 15.7564 12.2921 15.7925 12.4221 15.8615L15.7799 17.6435L15.1616 13.8663C15.1383 13.7235 15.1498 13.5772 15.1951 13.4398C15.2404 13.3024 15.3181 13.178 15.4217 13.077L18.1666 10.4005L14.402 9.8533C14.2585 9.83229 14.1221 9.77688 14.0046 9.69179C13.887 9.6067 13.7918 9.49445 13.727 9.36462L12 5.91232Z" fill="#08305B"/>
</svg>
