<svg width="24" height="24" viewBox="0 0 24 24" fill="none" xmlns="http://www.w3.org/2000/svg">
<path fill-rule="evenodd" clip-rule="evenodd" d="M19.6777 2.12126L18.9706 1.82837H13.3138L12.6067 2.12126L1.29297 13.435V14.8492L9.77825 23.3345H11.1925L22.5062 12.0208L22.7991 11.3137V5.6568L22.5062 4.94969L19.6777 2.12126ZM13.728 3.82837H18.5564L20.7991 6.07101V10.8994L10.4854 21.2131L3.41429 14.1421L13.728 3.82837ZM16.8492 7.77825C17.2397 8.16877 17.8729 8.16877 18.2634 7.77825C18.6539 7.38772 18.6539 6.75456 18.2634 6.36403C17.8729 5.97351 17.2397 5.97351 16.8492 6.36403C16.4586 6.75456 16.4586 7.38772 16.8492 7.77825Z" fill="#08305B"/>
</svg>
