<svg width="269" height="83" viewBox="0 0 269 83" fill="#000" xmlns="http://www.w3.org/2000/svg">
<path d="M82.3641 2.84477H70.5978V67.3817H82.3641V2.84477Z" />
<path d="M124.443 32.3522C121.585 25.2682 115.926 21.3078 108.138 21.3078C95.4751 21.3078 88.0231 30.7346 88.0231 44.9026C88.0231 58.9033 95.6992 68.33 108.698 68.33C116.206 68.33 121.641 64.4812 124.443 57.5645V67.4375H136.209V22.2561H124.443V32.3522ZM112.228 57.7319C103.712 57.7319 99.9015 53.7715 99.9015 44.9026C99.9015 35.8663 103.712 31.9059 112.228 31.9059C121.025 31.9059 124.835 35.8663 124.835 44.9026C124.835 53.7715 121.025 57.7319 112.228 57.7319Z" />
<path d="M156.38 35.0295V22.2003H144.613V67.3817H156.38V48.6955C156.38 37.2607 161.59 32.2964 168.986 32.2964H175.094V22.256L169.603 22.2003C160.918 22.2003 157.556 28.2244 156.38 35.0295Z" />
<path d="M185.571 0C180.585 0 177.895 2.56586 177.895 7.19556C177.895 11.9926 180.697 14.67 185.571 14.67C190.502 14.67 193.247 11.9926 193.247 7.19556C193.247 2.56586 190.502 0 185.571 0Z" />
<path d="M191.51 22.2003H179.744V67.3817H191.51V22.2003Z" />
<path d="M256.113 22.2003L247.316 48.9187L244.347 58.959L241.657 48.9187L232.973 22.2003H211.849V10.6539H225.016V0.334679H214.203C205.798 0.334679 200.139 5.96841 200.139 14.3353V67.326H211.905V32.4637H224.12L239.248 72.6808H223.504V83H232.973C242.778 83 246.98 79.4859 249.726 72.2903L269 22.1445H256.113V22.2003Z" />
<path d="M52.5561 41.7789C50.2029 52.9906 45.2162 56.951 33.5059 56.951C18.9381 56.951 12.999 50.5921 12.999 35.0296C12.999 19.8018 19.1623 13.3313 33.5059 13.3313C45.2162 13.3313 50.2029 17.2917 52.5561 28.5034L53.1725 28.3918L65.1629 26.5511C61.633 10.6539 49.3064 1.95229 33.5059 1.95229C14.96 1.95229 0 15.3394 0 35.1411C0 54.7756 15.016 68.33 33.5059 68.33C49.3064 68.33 61.633 59.6284 65.1629 43.7312L52.8363 41.8347L52.5561 41.7789Z" />
</svg>
